<svg width="190" height="148" viewBox="0 0 190 148" fill="none" xmlns="http://www.w3.org/2000/svg">
<g clip-path="url(#clip0_1627_22217)">
<path d="M170.779 128.097H158.194V128.192H170.779V128.097Z" fill="#EBEBEB"/>
<path d="M125.677 129.127H122.375V129.222H125.677V129.127Z" fill="#EBEBEB"/>
<path d="M157.81 124.567H150.518V124.662H157.81V124.567Z" fill="#EBEBEB"/>
<path d="M36.1642 125.205H19.752V125.3H36.1642V125.205Z" fill="#EBEBEB"/>
<path d="M41.9518 125.205H39.5464V125.3H41.9518V125.205Z" fill="#EBEBEB"/>
<path d="M85.3743 126.809H49.7759V126.904H85.3743V126.809Z" fill="#EBEBEB"/>
<path d="M90.5918 106.931H17.2137C16.6389 106.931 16.0876 106.703 15.6808 106.297C15.274 105.891 15.045 105.34 15.0439 104.765V1.61766C15.045 1.04285 15.274 0.491931 15.6808 0.0858362C16.0876 -0.320259 16.6389 -0.548341 17.2137 -0.54834H90.5918C91.1666 -0.548341 91.7179 -0.320259 92.1247 0.0858362C92.5315 0.491931 92.7605 1.04285 92.7616 1.61766V104.78C92.7565 105.352 92.5257 105.899 92.1194 106.302C91.713 106.705 91.1639 106.931 90.5918 106.931ZM17.2137 -0.45334C16.6641 -0.453341 16.137 -0.235268 15.748 0.153011C15.359 0.54129 15.14 1.06805 15.1389 1.61766V104.78C15.14 105.33 15.359 105.856 15.748 106.245C16.137 106.633 16.6641 106.851 17.2137 106.851H90.5918C91.1414 106.851 91.6685 106.633 92.0575 106.245C92.4465 105.856 92.6655 105.33 92.6665 104.78V1.61766C92.6655 1.06805 92.4465 0.54129 92.0575 0.153011C91.6685 -0.235268 91.1414 -0.453341 90.5918 -0.45334H17.2137Z" fill="#EBEBEB"/>
<path d="M172.786 106.931H99.4076C98.8328 106.931 98.2815 106.703 97.8747 106.297C97.4678 105.891 97.2388 105.34 97.2378 104.765V1.61766C97.2388 1.04285 97.4678 0.491931 97.8747 0.0858362C98.2815 -0.320259 98.8328 -0.548341 99.4076 -0.54834H172.786C173.36 -0.548341 173.912 -0.320259 174.319 0.0858362C174.725 0.491931 174.954 1.04285 174.955 1.61766V104.78C174.95 105.352 174.72 105.899 174.313 106.302C173.907 106.705 173.358 106.931 172.786 106.931ZM99.4076 -0.45334C98.858 -0.453341 98.3308 -0.235268 97.9418 0.153011C97.5528 0.54129 97.3338 1.06805 97.3328 1.61766V104.78C97.3338 105.33 97.5528 105.856 97.9418 106.245C98.3308 106.633 98.858 106.851 99.4076 106.851H172.786C173.335 106.851 173.862 106.633 174.251 106.245C174.64 105.856 174.859 105.33 174.86 104.78V1.61766C174.859 1.06805 174.64 0.54129 174.251 0.153011C173.862 -0.235268 173.335 -0.453341 172.786 -0.45334H99.4076Z" fill="#EBEBEB"/>
<path d="M189.817 123.879H-0.182617V123.974H189.817V123.879Z" fill="#EBEBEB"/>
<path d="M109.653 67.9087H85.249V113.904H109.653V67.9087Z" fill="#EBEBEB"/>
<path d="M89.9346 62.011V67.9086H91.8612H103.041H104.967V62.011H89.9346Z" fill="#EBEBEB"/>
<path d="M89.9341 69.4705H86.8105V72.5941H89.9341V69.4705Z" fill="#FAFAFA"/>
<path d="M95.9879 69.4705H92.8643V72.5941H95.9879V69.4705Z" fill="#FAFAFA"/>
<path d="M102.037 69.4705H98.9136V72.5941H102.037V69.4705Z" fill="#FAFAFA"/>
<path d="M108.091 69.4705H104.967V72.5941H108.091V69.4705Z" fill="#FAFAFA"/>
<path d="M89.9341 75.1477H86.8105V78.2713H89.9341V75.1477Z" fill="#FAFAFA"/>
<path d="M95.9879 75.1477H92.8643V78.2713H95.9879V75.1477Z" fill="#FAFAFA"/>
<path d="M102.037 75.1477H98.9136V78.2713H102.037V75.1477Z" fill="#FAFAFA"/>
<path d="M108.091 75.1477H104.967V78.2713H108.091V75.1477Z" fill="#FAFAFA"/>
<path d="M89.9341 80.821H86.8105V83.9446H89.9341V80.821Z" fill="#FAFAFA"/>
<path d="M95.9879 80.821H92.8643V83.9446H95.9879V80.821Z" fill="#FAFAFA"/>
<path d="M102.037 80.821H98.9136V83.9446H102.037V80.821Z" fill="#FAFAFA"/>
<path d="M95.9879 64.5608H92.8643V67.6844H95.9879V64.5608Z" fill="#FAFAFA"/>
<path d="M102.037 64.5608H98.9136V67.6844H102.037V64.5608Z" fill="#FAFAFA"/>
<path d="M108.091 80.821H104.967V83.9446H108.091V80.821Z" fill="#FAFAFA"/>
<path d="M89.9341 86.4983H86.8105V89.6219H89.9341V86.4983Z" fill="#FAFAFA"/>
<path d="M95.9879 86.4983H92.8643V89.6219H95.9879V86.4983Z" fill="#FAFAFA"/>
<path d="M102.037 86.4983H98.9136V89.6219H102.037V86.4983Z" fill="#FAFAFA"/>
<path d="M108.091 86.4983H104.967V89.6219H108.091V86.4983Z" fill="#FAFAFA"/>
<path d="M89.9341 92.1755H86.8105V95.2991H89.9341V92.1755Z" fill="#FAFAFA"/>
<path d="M95.9879 92.1755H92.8643V95.2991H95.9879V92.1755Z" fill="#FAFAFA"/>
<path d="M102.037 92.1755H98.9136V95.2991H102.037V92.1755Z" fill="#FAFAFA"/>
<path d="M108.091 92.1755H104.967V95.2991H108.091V92.1755Z" fill="#FAFAFA"/>
<path d="M89.9341 97.8525H86.8105V100.976H89.9341V97.8525Z" fill="#FAFAFA"/>
<path d="M95.9879 97.8525H92.8643V100.976H95.9879V97.8525Z" fill="#FAFAFA"/>
<path d="M102.037 97.8525H98.9136V100.976H102.037V97.8525Z" fill="#FAFAFA"/>
<path d="M108.091 97.8525H104.967V100.976H108.091V97.8525Z" fill="#FAFAFA"/>
<path d="M89.9341 103.53H86.8105V106.653H89.9341V103.53Z" fill="#FAFAFA"/>
<path d="M95.9879 103.53H92.8643V106.653H95.9879V103.53Z" fill="#FAFAFA"/>
<path d="M102.037 103.53H98.9136V106.653H102.037V103.53Z" fill="#FAFAFA"/>
<path d="M108.091 103.53H104.967V106.653H108.091V103.53Z" fill="#FAFAFA"/>
<path d="M84.7437 67.939H110.154V67.3006H84.7437V67.939Z" fill="#F5F5F5"/>
<path d="M85.9291 59.9438H56.9199V113.904H85.9291V59.9438Z" fill="#E6E6E6"/>
<path d="M62.4907 52.9329V59.9439H64.7783H78.0707H80.3583V52.9329H62.4907Z" fill="#E6E6E6"/>
<path d="M56.3197 59.9819L86.5259 59.9819V59.2257L56.3197 59.2257V59.9819Z" fill="#F5F5F5"/>
<path d="M61.7344 52.9329H81.1182V52.1767H61.7344V52.9329Z" fill="#F5F5F5"/>
<path d="M79.8798 59.9438H50.8706V113.904H79.8798V59.9438Z" fill="#F0F0F0"/>
<path d="M56.4414 52.9329V59.9439H58.729H72.0214H74.309V52.9329H56.4414Z" fill="#F0F0F0"/>
<path d="M56.4411 61.7983H52.7285V65.5109H56.4411V61.7983Z" fill="white"/>
<path d="M63.6345 61.7983H59.9219V65.5109H63.6345V61.7983Z" fill="white"/>
<path d="M70.8278 61.7983H67.1152V65.5109H70.8278V61.7983Z" fill="white"/>
<path d="M78.0212 61.7983H74.3086V65.5109H78.0212V61.7983Z" fill="white"/>
<path d="M56.4411 68.5471H52.7285V72.2597H56.4411V68.5471Z" fill="white"/>
<path d="M63.6345 68.5471H59.9219V72.2597H63.6345V68.5471Z" fill="white"/>
<path d="M70.8278 68.5471H67.1152V72.2597H70.8278V68.5471Z" fill="white"/>
<path d="M78.0212 68.5471H74.3086V72.2597H78.0212V68.5471Z" fill="white"/>
<path d="M56.4411 75.2959H52.7285V79.0085H56.4411V75.2959Z" fill="white"/>
<path d="M63.6345 75.2959H59.9219V79.0085H63.6345V75.2959Z" fill="white"/>
<path d="M70.8278 75.2959H67.1152V79.0085H70.8278V75.2959Z" fill="white"/>
<path d="M63.6345 55.9653H59.9219V59.6779H63.6345V55.9653Z" fill="white"/>
<path d="M70.8278 55.9653H67.1152V59.6779H70.8278V55.9653Z" fill="white"/>
<path d="M78.0212 75.2959H74.3086V79.0085H78.0212V75.2959Z" fill="white"/>
<path d="M56.4411 82.0447H52.7285V85.7573H56.4411V82.0447Z" fill="white"/>
<path d="M63.6345 82.0447H59.9219V85.7573H63.6345V82.0447Z" fill="white"/>
<path d="M70.8278 82.0447H67.1152V85.7573H70.8278V82.0447Z" fill="white"/>
<path d="M78.0212 82.0447H74.3086V85.7573H78.0212V82.0447Z" fill="white"/>
<path d="M56.4411 88.7935H52.7285V92.5061H56.4411V88.7935Z" fill="white"/>
<path d="M63.6345 88.7935H59.9219V92.5061H63.6345V88.7935Z" fill="white"/>
<path d="M70.8278 88.7935H67.1152V92.5061H70.8278V88.7935Z" fill="white"/>
<path d="M78.0212 88.7935H74.3086V92.5061H78.0212V88.7935Z" fill="white"/>
<path d="M56.4411 95.5386H52.7285V99.2512H56.4411V95.5386Z" fill="white"/>
<path d="M63.6345 95.5386H59.9219V99.2512H63.6345V95.5386Z" fill="white"/>
<path d="M70.8278 95.5386H67.1152V99.2512H70.8278V95.5386Z" fill="white"/>
<path d="M78.0212 95.5386H74.3086V99.2512H78.0212V95.5386Z" fill="white"/>
<path d="M56.4411 102.287H52.7285V106H56.4411V102.287Z" fill="white"/>
<path d="M63.6345 102.287H59.9219V106H63.6345V102.287Z" fill="white"/>
<path d="M70.8278 102.287H67.1152V106H70.8278V102.287Z" fill="white"/>
<path d="M78.0212 102.287H74.3086V106H78.0212V102.287Z" fill="white"/>
<path d="M50.2738 59.9819L80.48 59.9819V59.2257L50.2738 59.2257V59.9819Z" fill="#F5F5F5"/>
<path d="M55.6851 52.9329H75.0688V52.1767H55.6851V52.9329Z" fill="#F5F5F5"/>
<path d="M36.2706 84.3853H20.0332V113.687H45.9454V84.3853V73.0728L36.2706 84.3853Z" fill="#F5F5F5"/>
<path d="M50.7832 73.0728H45.9458V113.687H50.7832V73.0728Z" fill="#E6E6E6"/>
<path d="M25.0987 89.5535H21.2417V93.4105H25.0987V89.5535Z" fill="#E0E0E0"/>
<path opacity="0.3" d="M25.099 89.5535H21.6714V93.4105H25.099V89.5535Z" fill="white"/>
<path d="M25.0987 96.0439H21.2417V99.9009H25.0987V96.0439Z" fill="#E0E0E0"/>
<path opacity="0.3" d="M25.099 96.0439H21.6714V99.9009H25.099V96.0439Z" fill="white"/>
<path d="M25.0987 102.531H21.2417V106.388H25.0987V102.531Z" fill="#E0E0E0"/>
<path opacity="0.3" d="M25.099 102.531H21.6714V106.388H25.099V102.531Z" fill="white"/>
<path opacity="0.2" d="M25.5284 102.531H21.6714V106.388H25.5284V102.531Z" fill="white"/>
<path d="M31.6007 89.5535H27.7437V93.4105H31.6007V89.5535Z" fill="#E0E0E0"/>
<path opacity="0.3" d="M31.6005 89.5535H28.1729V93.4105H31.6005V89.5535Z" fill="white"/>
<path d="M31.6007 96.0439H27.7437V99.9009H31.6007V96.0439Z" fill="#E0E0E0"/>
<path opacity="0.3" d="M31.6005 96.0439H28.1729V99.9009H31.6005V96.0439Z" fill="white"/>
<path d="M31.6007 102.531H27.7437V106.388H31.6007V102.531Z" fill="#E0E0E0"/>
<path opacity="0.3" d="M31.6005 102.531H28.1729V106.388H31.6005V102.531Z" fill="white"/>
<path opacity="0.2" d="M32.0299 102.531H28.1729V106.388H32.0299V102.531Z" fill="white"/>
<path d="M38.1026 89.5535H34.2456V93.4105H38.1026V89.5535Z" fill="#E0E0E0"/>
<path opacity="0.3" d="M38.1024 89.5535H34.6748V93.4105H38.1024V89.5535Z" fill="white"/>
<path d="M38.1026 96.0439H34.2456V99.9009H38.1026V96.0439Z" fill="#E0E0E0"/>
<path opacity="0.3" d="M38.1024 96.0439H34.6748V99.9009H38.1024V96.0439Z" fill="white"/>
<path d="M38.1026 102.531H34.2456V106.388H38.1026V102.531Z" fill="#E0E0E0"/>
<path opacity="0.3" d="M38.1024 102.531H34.6748V106.388H38.1024V102.531Z" fill="white"/>
<path opacity="0.2" d="M38.5318 102.531H34.6748V106.388H38.5318V102.531Z" fill="white"/>
<path d="M44.6002 89.5535H40.7432V93.4105H44.6002V89.5535Z" fill="#E0E0E0"/>
<path opacity="0.3" d="M44.6005 89.5535H41.1729V93.4105H44.6005V89.5535Z" fill="white"/>
<path d="M44.6002 96.0439H40.7432V99.9009H44.6002V96.0439Z" fill="#E0E0E0"/>
<path opacity="0.3" d="M44.6005 96.0439H41.1729V99.9009H44.6005V96.0439Z" fill="white"/>
<path d="M44.6002 102.531H40.7432V106.388H44.6002V102.531Z" fill="#E0E0E0"/>
<path opacity="0.3" d="M44.6005 102.531H41.1729V106.388H44.6005V102.531Z" fill="white"/>
<path opacity="0.2" d="M45.0338 102.531H41.1768V106.388H45.0338V102.531Z" fill="white"/>
<path d="M130.492 20.9749L140.611 20.8609C140.97 20.8562 141.323 20.9566 141.626 21.1497C144.825 24.1897 148.511 22.4341 150.149 21.3701C150.772 20.9621 151.498 20.7382 152.243 20.7241L163.517 20.5949C167.751 20.5455 168.704 14.6099 164.692 13.2685L164.54 13.2001C168.917 9.46849 159.128 1.80009 148.716 12.6871C149.499 9.09229 140.147 10.4945 137.339 15.4193C136.283 12.2349 127.417 17.9197 130.492 20.9749Z" fill="#F0F0F0"/>
<path d="M72.6632 35.9354H89.4668C91.6176 35.9354 92.1268 32.922 90.1052 32.2152L90.0254 32.1886C92.275 30.3152 87.3426 26.3632 81.9808 31.8352C82.3988 30.0112 77.6336 30.6686 76.1782 33.1576C75.6614 31.5236 71.1166 34.3622 72.6632 35.9354Z" fill="#F0F0F0"/>
<path d="M25.6233 21.5031H54.1689C57.8245 21.5031 58.7061 16.3845 55.2519 15.1799L55.1189 15.1381C58.9417 11.9537 50.5589 5.25814 41.4389 14.5339C42.1495 11.4369 34.0555 12.5579 31.5817 16.7835C30.7153 14.0095 22.9975 18.8279 25.6233 21.5031Z" fill="#F0F0F0"/>
<path d="M104.238 79.4797H80.0356V116.67H104.238V79.4797Z" fill="#9E9E9E"/>
<path opacity="0.6" d="M100.153 79.4758H80.0356V116.67H100.153V79.4758Z" fill="white"/>
<path opacity="0.3" d="M104.242 79.4758H100.153V116.67H104.242V79.4758Z" fill="white"/>
<path d="M86.1536 81.3682H81.7646V85.7572H86.1536V81.3682Z" fill="#9E9E9E"/>
<path d="M92.287 81.3682H87.8979V85.7572H92.287V81.3682Z" fill="#9E9E9E"/>
<path d="M98.4237 81.3682H94.0347V85.7572H98.4237V81.3682Z" fill="#9E9E9E"/>
<path d="M86.1536 87.0872H81.7646V91.4762H86.1536V87.0872Z" fill="#9E9E9E"/>
<path d="M92.287 87.0872H87.8979V91.4762H92.287V87.0872Z" fill="#9E9E9E"/>
<path d="M98.4237 87.0872H94.0347V91.4762H98.4237V87.0872Z" fill="#9E9E9E"/>
<path d="M86.1536 92.8062H81.7646V97.1952H86.1536V92.8062Z" fill="#9E9E9E"/>
<path d="M92.287 92.8062H87.8979V97.1952H92.287V92.8062Z" fill="#9E9E9E"/>
<path d="M98.4237 92.8062H94.0347V97.1952H98.4237V92.8062Z" fill="#9E9E9E"/>
<path d="M86.1536 98.5251H81.7646V102.914H86.1536V98.5251Z" fill="#9E9E9E"/>
<path d="M92.287 98.5251H87.8979V102.914H92.287V98.5251Z" fill="#9E9E9E"/>
<path d="M98.4237 98.5251H94.0347V102.914H98.4237V98.5251Z" fill="#9E9E9E"/>
<path d="M86.1536 104.244H81.7646V108.633H86.1536V104.244Z" fill="#9E9E9E"/>
<path d="M92.287 104.244H87.8979V108.633H92.287V104.244Z" fill="#9E9E9E"/>
<path d="M98.4237 104.244H94.0347V108.633H98.4237V104.244Z" fill="#9E9E9E"/>
<path d="M86.1536 111.483H81.7646V116.67H86.1536V111.483Z" fill="#9E9E9E"/>
<path d="M92.287 109.963H87.8979V116.67H92.287V109.963Z" fill="#9E9E9E"/>
<path d="M98.4237 111.483H94.0347V116.67H98.4237V111.483Z" fill="#9E9E9E"/>
<path opacity="0.4" d="M86.1535 81.3682H82.1255V85.7572H86.1535V81.3682Z" fill="white"/>
<path opacity="0.4" d="M92.2907 81.3682H88.2627V85.7572H92.2907V81.3682Z" fill="white"/>
<path opacity="0.4" d="M98.4274 81.3682H94.3994V85.7572H98.4274V81.3682Z" fill="white"/>
<path opacity="0.4" d="M86.1535 87.0872H82.1255V91.4762H86.1535V87.0872Z" fill="white"/>
<path opacity="0.4" d="M92.2907 87.0872H88.2627V91.4762H92.2907V87.0872Z" fill="white"/>
<path opacity="0.4" d="M98.4274 87.0872H94.3994V91.4762H98.4274V87.0872Z" fill="white"/>
<path opacity="0.4" d="M86.1535 92.8062H82.1255V97.1952H86.1535V92.8062Z" fill="white"/>
<path opacity="0.4" d="M92.2907 92.8062H88.2627V97.1952H92.2907V92.8062Z" fill="white"/>
<path opacity="0.4" d="M98.4274 92.8062H94.3994V97.1952H98.4274V92.8062Z" fill="white"/>
<path opacity="0.4" d="M86.1535 98.5251H82.1255V102.914H86.1535V98.5251Z" fill="white"/>
<path opacity="0.4" d="M92.2907 98.5251H88.2627V102.914H92.2907V98.5251Z" fill="white"/>
<path opacity="0.4" d="M98.4274 98.5251H94.3994V102.914H98.4274V98.5251Z" fill="white"/>
<path opacity="0.4" d="M86.1535 104.244H82.1255V108.633H86.1535V104.244Z" fill="white"/>
<path opacity="0.4" d="M92.2907 104.244H88.2627V108.633H92.2907V104.244Z" fill="white"/>
<path opacity="0.4" d="M98.4274 104.244H94.3994V108.633H98.4274V104.244Z" fill="white"/>
<path opacity="0.4" d="M86.1535 111.483H82.1255V116.67H86.1535V111.483Z" fill="white"/>
<path opacity="0.4" d="M92.2907 109.963H88.2627V116.67H92.2907V109.963Z" fill="white"/>
<path opacity="0.4" d="M98.4274 111.483H94.3994V116.67H98.4274V111.483Z" fill="white"/>
<path d="M78.5649 77.8684H108.387L107.502 79.757H79.4541L78.5649 77.8684Z" fill="#9E9E9E"/>
<path opacity="0.2" d="M100.594 77.8684H108.387L107.502 79.757H100.168L100.594 77.8684Z" fill="black"/>
<path d="M167.511 57.2307H143.085V116.67H167.511V57.2307Z" fill="#9E9E9E"/>
<path opacity="0.4" d="M161.667 57.2307H143.085V116.67H161.667V57.2307Z" fill="white"/>
<path d="M168.655 55.4712H141.938V57.3674H168.655V55.4712Z" fill="#9E9E9E"/>
<path opacity="0.2" d="M168.655 55.4712H161.671V57.3674H168.655V55.4712Z" fill="black"/>
<path opacity="0.3" d="M167.515 57.3674H161.671V116.67H167.515V57.3674Z" fill="white"/>
<path d="M148.736 59.6018H145.578V64.386H148.736V59.6018Z" fill="#9E9E9E"/>
<path opacity="0.2" d="M148.736 59.9172H145.578V64.3822H148.736V59.9172Z" fill="white"/>
<path d="M146.03 59.6018H145.578V64.386H146.03V59.6018Z" fill="#9E9E9E"/>
<path d="M153.71 59.6018H150.552V64.386H153.71V59.6018Z" fill="#9E9E9E"/>
<path opacity="0.2" d="M153.71 59.9172H150.552V64.3822H153.71V59.9172Z" fill="white"/>
<path d="M151.004 59.6018H150.552V64.386H151.004V59.6018Z" fill="#9E9E9E"/>
<path d="M158.684 59.6018H155.526V64.386H158.684V59.6018Z" fill="#9E9E9E"/>
<path opacity="0.2" d="M158.684 59.9172H155.526V64.3822H158.684V59.9172Z" fill="white"/>
<path d="M155.979 59.6018H155.526V64.386H155.979V59.6018Z" fill="#9E9E9E"/>
<path d="M148.736 66.8066H145.578V71.5908H148.736V66.8066Z" fill="#9E9E9E"/>
<path opacity="0.2" d="M148.736 67.1221H145.578V71.5871H148.736V67.1221Z" fill="white"/>
<path d="M146.03 66.8066H145.578V71.5908H146.03V66.8066Z" fill="#9E9E9E"/>
<path d="M153.71 66.8066H150.552V71.5908H153.71V66.8066Z" fill="#9E9E9E"/>
<path opacity="0.2" d="M153.71 67.1221H150.552V71.5871H153.71V67.1221Z" fill="white"/>
<path d="M151.004 66.8066H150.552V71.5908H151.004V66.8066Z" fill="#9E9E9E"/>
<path d="M158.684 66.8066H155.526V71.5908H158.684V66.8066Z" fill="#9E9E9E"/>
<path opacity="0.2" d="M158.684 67.1221H155.526V71.5871H158.684V67.1221Z" fill="white"/>
<path d="M155.979 66.8066H155.526V71.5908H155.979V66.8066Z" fill="#9E9E9E"/>
<path d="M148.736 74.0076H145.578V78.7918H148.736V74.0076Z" fill="#9E9E9E"/>
<path opacity="0.2" d="M148.736 74.3269H145.578V78.7919H148.736V74.3269Z" fill="white"/>
<path d="M146.03 74.0076H145.578V78.7918H146.03V74.0076Z" fill="#9E9E9E"/>
<path d="M153.71 74.0076H150.552V78.7918H153.71V74.0076Z" fill="#9E9E9E"/>
<path opacity="0.2" d="M153.71 74.3269H150.552V78.7919H153.71V74.3269Z" fill="white"/>
<path d="M151.004 74.0076H150.552V78.7918H151.004V74.0076Z" fill="#9E9E9E"/>
<path d="M158.684 74.0076H155.526V78.7918H158.684V74.0076Z" fill="#9E9E9E"/>
<path opacity="0.2" d="M158.684 74.3269H155.526V78.7919H158.684V74.3269Z" fill="white"/>
<path d="M155.979 74.0076H155.526V78.7918H155.979V74.0076Z" fill="#9E9E9E"/>
<path d="M148.736 81.2124H145.578V85.9966H148.736V81.2124Z" fill="#9E9E9E"/>
<path opacity="0.2" d="M148.736 81.5317H145.578V85.9967H148.736V81.5317Z" fill="white"/>
<path d="M146.03 81.2124H145.578V85.9966H146.03V81.2124Z" fill="#9E9E9E"/>
<path d="M153.71 81.2124H150.552V85.9966H153.71V81.2124Z" fill="#9E9E9E"/>
<path opacity="0.2" d="M153.71 81.5317H150.552V85.9967H153.71V81.5317Z" fill="white"/>
<path d="M151.004 81.2124H150.552V85.9966H151.004V81.2124Z" fill="#9E9E9E"/>
<path d="M158.684 81.2124H155.526V85.9966H158.684V81.2124Z" fill="#9E9E9E"/>
<path opacity="0.2" d="M158.684 81.5317H155.526V85.9967H158.684V81.5317Z" fill="white"/>
<path d="M155.979 81.2124H155.526V85.9966H155.979V81.2124Z" fill="#9E9E9E"/>
<path d="M148.736 88.4172H145.578V93.2014H148.736V88.4172Z" fill="#9E9E9E"/>
<path opacity="0.2" d="M148.736 88.7327H145.578V93.1977H148.736V88.7327Z" fill="white"/>
<path d="M146.03 88.4172H145.578V93.2014H146.03V88.4172Z" fill="#9E9E9E"/>
<path d="M153.71 88.4172H150.552V93.2014H153.71V88.4172Z" fill="#9E9E9E"/>
<path opacity="0.2" d="M153.71 88.7327H150.552V93.1977H153.71V88.7327Z" fill="white"/>
<path d="M151.004 88.4172H150.552V93.2014H151.004V88.4172Z" fill="#9E9E9E"/>
<path d="M158.684 88.4172H155.526V93.2014H158.684V88.4172Z" fill="#9E9E9E"/>
<path opacity="0.2" d="M158.684 88.7327H155.526V93.1977H158.684V88.7327Z" fill="white"/>
<path d="M155.979 88.4172H155.526V93.2014H155.979V88.4172Z" fill="#9E9E9E"/>
<path d="M148.736 95.6182H145.578V100.402H148.736V95.6182Z" fill="#9E9E9E"/>
<path opacity="0.2" d="M148.736 95.9375H145.578V100.402H148.736V95.9375Z" fill="white"/>
<path d="M146.03 95.6182H145.578V100.402H146.03V95.6182Z" fill="#9E9E9E"/>
<path d="M153.71 95.6182H150.552V100.402H153.71V95.6182Z" fill="#9E9E9E"/>
<path opacity="0.2" d="M153.71 95.9375H150.552V100.402H153.71V95.9375Z" fill="white"/>
<path d="M151.004 95.6182H150.552V100.402H151.004V95.6182Z" fill="#9E9E9E"/>
<path d="M158.684 95.6182H155.526V100.402H158.684V95.6182Z" fill="#9E9E9E"/>
<path opacity="0.2" d="M158.684 95.9375H155.526V100.402H158.684V95.9375Z" fill="white"/>
<path d="M155.979 95.6182H155.526V100.402H155.979V95.6182Z" fill="#9E9E9E"/>
<path d="M148.736 102.823H145.578V107.607H148.736V102.823Z" fill="#9E9E9E"/>
<path opacity="0.2" d="M148.736 103.142H145.578V107.607H148.736V103.142Z" fill="white"/>
<path d="M146.03 102.823H145.578V107.607H146.03V102.823Z" fill="#9E9E9E"/>
<path d="M153.71 102.823H150.552V107.607H153.71V102.823Z" fill="#9E9E9E"/>
<path opacity="0.2" d="M153.71 103.142H150.552V107.607H153.71V103.142Z" fill="white"/>
<path d="M151.004 102.823H150.552V107.607H151.004V102.823Z" fill="#9E9E9E"/>
<path d="M158.684 102.823H155.526V107.607H158.684V102.823Z" fill="#9E9E9E"/>
<path opacity="0.2" d="M158.684 103.142H155.526V107.607H158.684V103.142Z" fill="white"/>
<path d="M155.979 102.823H155.526V107.607H155.979V102.823Z" fill="#9E9E9E"/>
<path d="M148.736 110.028H145.578V114.812H148.736V110.028Z" fill="#9E9E9E"/>
<path opacity="0.2" d="M148.736 110.343H145.578V114.808H148.736V110.343Z" fill="white"/>
<path d="M146.03 110.028H145.578V114.812H146.03V110.028Z" fill="#9E9E9E"/>
<path d="M153.71 110.028H150.552V114.812H153.71V110.028Z" fill="#9E9E9E"/>
<path opacity="0.2" d="M153.71 110.343H150.552V114.808H153.71V110.343Z" fill="white"/>
<path d="M151.004 110.028H150.552V114.812H151.004V110.028Z" fill="#9E9E9E"/>
<path d="M158.684 110.028H155.526V114.812H158.684V110.028Z" fill="#9E9E9E"/>
<path opacity="0.2" d="M158.684 110.343H155.526V114.808H158.684V110.343Z" fill="white"/>
<path d="M155.979 110.028H155.526V114.812H155.979V110.028Z" fill="#9E9E9E"/>
<path d="M116.021 23.5247H115.478V35.2287H116.021V23.5247Z" fill="#263238"/>
<path d="M127.832 23.5247H127.289V35.2287H127.832V23.5247Z" fill="#263238"/>
<path d="M138.05 28.856H119.692V38.5574H138.05V28.856Z" fill="#9E9E9E"/>
<path opacity="0.7" d="M138.05 28.856H119.692V38.5574H138.05V28.856Z" fill="white"/>
<path d="M127.433 28.856H109.075V38.5574H127.433V28.856Z" fill="#9E9E9E"/>
<path opacity="0.4" d="M127.433 28.856H109.075V38.5574H127.433V28.856Z" fill="white"/>
<path opacity="0.5" d="M107.331 43.7598H106.411V47.5598H107.331V43.7598Z" fill="white"/>
<path opacity="0.5" d="M107.331 53.5713H106.411V57.3713H107.331V53.5713Z" fill="white"/>
<path opacity="0.5" d="M107.331 60.2136H106.411V64.0136H107.331V60.2136Z" fill="white"/>
<path opacity="0.5" d="M107.331 66.8599H106.411V70.6599H107.331V66.8599Z" fill="white"/>
<path opacity="0.5" d="M107.331 73.5022H106.411V77.3022H107.331V73.5022Z" fill="white"/>
<path opacity="0.5" d="M107.331 80.1448H106.411V83.9448H107.331V80.1448Z" fill="white"/>
<path opacity="0.5" d="M107.331 87.4673H106.411V91.2673H107.331V87.4673Z" fill="white"/>
<path opacity="0.5" d="M107.331 94.7898H106.411V98.5898H107.331V94.7898Z" fill="white"/>
<path opacity="0.5" d="M107.331 102.109H106.411V105.909H107.331V102.109Z" fill="white"/>
<path opacity="0.5" d="M107.331 109.431H106.411V113.231H107.331V109.431Z" fill="white"/>
<path d="M143.218 38.698H114.532V116.67H143.218V38.698Z" fill="#9E9E9E"/>
<path d="M132.593 38.698H103.907V116.67H132.593V38.698Z" fill="#9E9E9E"/>
<path opacity="0.3" d="M143.214 39.7698H132.597V116.674H143.214V39.7698Z" fill="white"/>
<path opacity="0.5" d="M132.593 38.698H103.907V116.67H132.593V38.698Z" fill="white"/>
<path d="M129.876 42.1067H126.357V114.808H129.876V42.1067Z" fill="#9E9E9E"/>
<path d="M123.097 42.1067H119.578V114.808H123.097V42.1067Z" fill="#9E9E9E"/>
<path d="M116.318 42.1067H112.799V114.808H116.318V42.1067Z" fill="#9E9E9E"/>
<path d="M109.535 42.1067H106.016V114.808H109.535V42.1067Z" fill="#9E9E9E"/>
<path opacity="0.2" d="M129.876 43.0264H126.357V114.808H129.876V43.0264Z" fill="white"/>
<path opacity="0.2" d="M123.097 43.0264H119.578V114.808H123.097V43.0264Z" fill="white"/>
<path opacity="0.2" d="M116.318 43.0264H112.799V114.808H116.318V43.0264Z" fill="white"/>
<path opacity="0.2" d="M109.535 43.0264H106.016V114.808H109.535V43.0264Z" fill="white"/>
<path d="M141.991 42.1067H140.516V114.808H141.991V42.1067Z" fill="#9E9E9E"/>
<path d="M139.148 42.1067H137.674V114.808H139.148V42.1067Z" fill="#9E9E9E"/>
<path d="M136.302 42.1067H134.828V114.808H136.302V42.1067Z" fill="#9E9E9E"/>
<g opacity="0.3">
<path opacity="0.4" d="M141.991 43.0264H140.516V114.808H141.991V43.0264Z" fill="white"/>
<path opacity="0.4" d="M139.148 43.0264H137.674V114.808H139.148V43.0264Z" fill="white"/>
<path opacity="0.4" d="M136.302 43.0264H134.828V114.808H136.302V43.0264Z" fill="white"/>
</g>
<path d="M142.603 36.4827H132.597V37.9457H142.603V36.4827Z" fill="#9E9E9E"/>
<path d="M142.603 36.1255H103.907V37.9457H142.603V36.1255Z" fill="#F0F0F0"/>
<path d="M143.959 37.9495H103.098V39.7697H143.959V37.9495Z" fill="#9E9E9E"/>
<path d="M143.959 34.6624H103.098V36.4826H143.959V34.6624Z" fill="#9E9E9E"/>
<path opacity="0.1" d="M143.959 37.9495H103.098V39.7697H143.959V37.9495Z" fill="black"/>
<path opacity="0.1" d="M143.959 34.6624H103.098V36.4826H143.959V34.6624Z" fill="black"/>
<path opacity="0.2" d="M143.959 37.9495H132.597V39.7697H143.959V37.9495Z" fill="black"/>
<path opacity="0.2" d="M143.959 34.6624H132.597V36.4826H143.959V34.6624Z" fill="black"/>
<path opacity="0.3" d="M120.456 28.856H116.071V33.2412H120.456V28.856Z" fill="white"/>
<path d="M71.8202 64.0135C68.0962 59.6207 63.4298 58.1197 60.006 59.7575C59.5136 59.9932 58.9575 60.061 58.4228 59.9505C57.8882 59.84 57.4045 59.5573 57.0458 59.1457C52.9038 54.6579 46.1892 54.1259 43.4038 58.3591C43.0886 58.8384 42.8213 59.3475 42.6058 59.8791C42.2639 60.7348 41.695 61.4811 40.9604 62.0375C40.4614 62.408 40.0329 62.8649 39.695 63.3865C38.7911 64.8851 38.3717 66.6262 38.4942 68.3721C38.5151 68.6327 38.4611 68.8938 38.3386 69.1247C38.2161 69.3556 38.0301 69.5467 37.8026 69.6755C37.0271 70.0817 36.3719 70.6845 35.9026 71.4235C33.6454 74.8435 34.641 80.9615 38.1256 85.0693C41.2302 88.7287 45.262 89.5685 47.6978 87.2809C47.7969 87.1857 47.929 87.1325 48.0664 87.1325C48.2038 87.1325 48.3359 87.1857 48.435 87.2809C50.1906 88.8579 52.235 88.8693 53.2876 87.1593C53.328 87.0847 53.3854 87.0208 53.4552 86.9725C53.5249 86.9243 53.605 86.8932 53.6891 86.8817C53.7731 86.8702 53.8586 86.8787 53.9387 86.9065C54.0189 86.9342 54.0913 86.9805 54.1502 87.0415C55.959 88.8541 58.144 88.9415 59.2574 87.1593C59.458 86.8275 59.6115 86.4694 59.7134 86.0953C59.7289 86.0159 59.7614 85.9407 59.8087 85.875C59.8559 85.8092 59.9168 85.7545 59.9872 85.7144C60.0575 85.6744 60.1357 85.65 60.2163 85.6429C60.297 85.6359 60.3782 85.6463 60.4544 85.6735C61.6362 86.1485 62.7952 85.9433 63.5856 85.0085C63.6641 84.9114 63.775 84.846 63.898 84.8243C64.0209 84.8027 64.1475 84.8263 64.2544 84.8907C68.309 87.3151 72.584 86.8477 74.9628 83.2339C78.1434 78.3965 76.7602 69.7971 71.8202 64.0135Z" fill="#9E9E9E"/>
<path opacity="0.6" d="M71.8202 64.0135C68.0962 59.6207 63.4298 58.1197 60.006 59.7575C59.5136 59.9932 58.9575 60.061 58.4228 59.9505C57.8882 59.84 57.4045 59.5573 57.0458 59.1457C52.9038 54.6579 46.1892 54.1259 43.4038 58.3591C43.0886 58.8384 42.8213 59.3475 42.6058 59.8791C42.2639 60.7348 41.695 61.4811 40.9604 62.0375C40.4614 62.408 40.0329 62.8649 39.695 63.3865C38.7911 64.8851 38.3717 66.6262 38.4942 68.3721C38.5151 68.6327 38.4611 68.8938 38.3386 69.1247C38.2161 69.3556 38.0301 69.5467 37.8026 69.6755C37.0271 70.0817 36.3719 70.6845 35.9026 71.4235C33.6454 74.8435 34.641 80.9615 38.1256 85.0693C41.2302 88.7287 45.262 89.5685 47.6978 87.2809C47.7969 87.1857 47.929 87.1325 48.0664 87.1325C48.2038 87.1325 48.3359 87.1857 48.435 87.2809C50.1906 88.8579 52.235 88.8693 53.2876 87.1593C53.328 87.0847 53.3854 87.0208 53.4552 86.9725C53.5249 86.9243 53.605 86.8932 53.6891 86.8817C53.7731 86.8702 53.8586 86.8787 53.9387 86.9065C54.0189 86.9342 54.0913 86.9805 54.1502 87.0415C55.959 88.8541 58.144 88.9415 59.2574 87.1593C59.458 86.8275 59.6115 86.4694 59.7134 86.0953C59.7289 86.0159 59.7614 85.9407 59.8087 85.875C59.8559 85.8092 59.9168 85.7545 59.9872 85.7144C60.0575 85.6744 60.1357 85.65 60.2163 85.6429C60.297 85.6359 60.3782 85.6463 60.4544 85.6735C61.6362 86.1485 62.7952 85.9433 63.5856 85.0085C63.6641 84.9114 63.775 84.846 63.898 84.8243C64.0209 84.8027 64.1475 84.8263 64.2544 84.8907C68.309 87.3151 72.584 86.8477 74.9628 83.2339C78.1434 78.3965 76.7602 69.7971 71.8202 64.0135Z" fill="white"/>
<path d="M47.0325 89.2834L50.5627 92.7376C50.2815 97.613 50.0497 108.842 50.0497 108.842L48.7957 116.693L59.8575 116.799C59.8575 116.799 59.3559 110.168 59.3559 109.811C59.3559 109.454 57.2165 96.7504 57.2165 96.7504L56.4565 89.6368L62.1565 87.8014L63.1977 84.6322L67.3777 82.1318L69.4259 78.8144L68.6355 78.613L66.3555 81.6758L63.7145 82.28L64.8545 79.4604H63.5967L60.4541 85.9964L56.4033 86.8704L56.9315 77.6934C53.6939 79.2894 52.6565 76.6294 52.6565 76.6294C52.6565 76.6294 51.3189 88.9832 50.8477 90.3892L48.7615 89.2834L46.4815 85.5138H45.5239L47.0325 89.2834Z" fill="#9E9E9E"/>
<path d="M30.8447 104.613H30.2861V111.795H30.8447V104.613Z" fill="#9E9E9E"/>
<path opacity="0.2" d="M30.8447 104.613H30.2861V111.795H30.8447V104.613Z" fill="black"/>
<path d="M42.4233 104.613H41.8647V111.795H42.4233V104.613Z" fill="#9E9E9E"/>
<path opacity="0.2" d="M42.4233 104.613H41.8647V111.795H42.4233V104.613Z" fill="black"/>
<path d="M43.0579 111.095H29.6743V111.969H43.0579V111.095Z" fill="#9E9E9E"/>
<path opacity="0.2" d="M43.0579 111.095H29.6743V111.969H43.0579V111.095Z" fill="white"/>
<path d="M30.5635 111.943H30.0049V116.803H30.5635V111.943Z" fill="#9E9E9E"/>
<path opacity="0.2" d="M30.5635 111.943H30.0049V116.803H30.5635V111.943Z" fill="black"/>
<path d="M42.7803 111.943H42.2217V116.803H42.7803V111.943Z" fill="#9E9E9E"/>
<path opacity="0.2" d="M42.7803 111.943H42.2217V116.803H42.7803V111.943Z" fill="black"/>
<path d="M43.0579 104.936H29.6743V109.161H43.0579V104.936Z" fill="#9E9E9E"/>
<path opacity="0.2" d="M43.0579 104.936H29.6743V109.161H43.0579V104.936Z" fill="white"/>
<path d="M43.0314 111.795H29.6934V113.155H43.0314V111.795Z" fill="#9E9E9E"/>
<path opacity="0.1" d="M43.0314 111.795H29.6934V113.155H43.0314V111.795Z" fill="black"/>
<path d="M29.6934 109.861H29.1348V116.796H29.6934V109.861Z" fill="#9E9E9E"/>
<path d="M29.9098 109.165H28.937V110.138H29.9098V109.165Z" fill="#9E9E9E"/>
<path opacity="0.2" d="M29.9098 109.165H28.937V110.138H29.9098V109.165Z" fill="white"/>
<path d="M30.6662 109.165H29.9062V110.138H30.6662V109.165Z" fill="#9E9E9E"/>
<path d="M43.0351 116.795H43.5938V109.86H43.0351V116.795Z" fill="#9E9E9E"/>
<path d="M42.822 110.134H43.791V109.161H42.822V110.134Z" fill="#9E9E9E"/>
<path opacity="0.2" d="M42.822 110.134H43.791V109.161H42.822V110.134Z" fill="white"/>
<path d="M42.8186 109.165H42.0586V110.138H42.8186V109.165Z" fill="#9E9E9E"/>
<path opacity="0.1" d="M30.6662 109.165H29.9062V110.138H30.6662V109.165Z" fill="black"/>
<path opacity="0.1" d="M42.8186 109.165H42.0586V110.138H42.8186V109.165Z" fill="black"/>
<path d="M29.6704 56.1211H29.1802V58.2643H29.6704V56.1211Z" fill="#263238"/>
<path d="M32.9913 55.228C29.9513 55.608 25.3533 56.6264 21.7471 58.5226V59.2408C25.2384 57.364 29.0686 56.2014 33.0141 55.8208L32.9913 55.228Z" fill="#9E9E9E"/>
<path d="M38.2697 56.2959C38.0747 56.1276 37.8557 55.9892 37.6199 55.8855C37.0993 55.6613 33.9491 56.1325 32.8699 56.3035V55.8437L32.8433 55.2471C33.5767 55.1711 34.2341 55.1179 34.7889 55.0837C35.6971 55.0343 36.3697 55.0039 36.8675 54.9887C37.0458 54.9806 37.224 55.0081 37.3916 55.0697C37.5592 55.1313 37.7128 55.2258 37.8434 55.3475C37.974 55.4693 38.0789 55.6159 38.1521 55.7787C38.2253 55.9416 38.2653 56.1174 38.2697 56.2959Z" fill="#9E9E9E"/>
<path d="M21.7472 63.5767C21.6464 63.5767 21.5498 63.5367 21.4785 63.4654C21.4072 63.3941 21.3672 63.2975 21.3672 63.1967C21.3672 63.0029 21.3672 62.6001 23.3888 60.7723C23.6732 60.5099 23.9754 60.2674 24.2932 60.0465C26.1525 58.8595 28.2387 58.0726 30.4188 57.7361C30.5196 57.723 30.6214 57.7505 30.702 57.8125C30.7825 57.8745 30.8351 57.9659 30.8482 58.0667C30.8613 58.1675 30.8338 58.2694 30.7718 58.3499C30.7098 58.4304 30.6184 58.483 30.5176 58.4961C30.4872 58.4961 27.2534 58.9521 24.7226 60.6811C24.4323 60.8829 24.1567 61.1051 23.898 61.3461C22.5832 62.5355 22.1652 63.0941 22.1234 63.2461C22.1114 63.3375 22.0667 63.4213 21.9975 63.4822C21.9283 63.543 21.8393 63.5766 21.7472 63.5767Z" fill="#263238"/>
<path d="M21.2419 58.42H22.0019C22.0261 58.42 22.0493 58.4296 22.0664 58.4467C22.0835 58.4638 22.0931 58.487 22.0931 58.5112V116.83H21.1431V58.5036C21.144 58.4916 21.1473 58.4799 21.1528 58.4692C21.1583 58.4585 21.1659 58.449 21.1751 58.4413C21.1843 58.4335 21.1949 58.4276 21.2063 58.424C21.2178 58.4203 21.2299 58.419 21.2419 58.42Z" fill="#263238"/>
<path d="M38.2735 56.3377V56.3681L33.8617 56.7823L32.8813 56.3681V56.3035C33.9605 56.1325 37.1107 55.6613 37.6313 55.8855C37.8631 55.9902 38.0782 56.1285 38.2697 56.2959C38.2731 56.3096 38.2744 56.3237 38.2735 56.3377Z" fill="#9E9E9E"/>
<path opacity="0.6" d="M38.2735 56.3377V56.3681L33.8617 56.7823L32.8813 56.3681V56.3035C33.9605 56.1325 37.1107 55.6613 37.6313 55.8855C37.8631 55.9902 38.0782 56.1285 38.2697 56.2959C38.2731 56.3096 38.2744 56.3237 38.2735 56.3377Z" fill="white"/>
<path d="M150.837 83.4165H151.821C151.852 83.4165 151.882 83.4289 151.905 83.451C151.927 83.4731 151.939 83.5031 151.939 83.5343V119.783H150.719V83.5343C150.719 83.5031 150.732 83.4731 150.754 83.451C150.776 83.4289 150.806 83.4165 150.837 83.4165Z" fill="#263238"/>
<path d="M157.13 84.4006H145.483C144.74 84.4006 144.138 85.0029 144.138 85.7458V87.9156C144.138 88.6586 144.74 89.2608 145.483 89.2608H157.13C157.873 89.2608 158.475 88.6586 158.475 87.9156V85.7458C158.475 85.0029 157.873 84.4006 157.13 84.4006Z" fill="#9E9E9E"/>
<path opacity="0.9" d="M157.13 84.4006H145.483C144.74 84.4006 144.138 85.0029 144.138 85.7458V87.9156C144.138 88.6586 144.74 89.2608 145.483 89.2608H157.13C157.873 89.2608 158.475 88.6586 158.475 87.9156V85.7458C158.475 85.0029 157.873 84.4006 157.13 84.4006Z" fill="white"/>
<path d="M156.765 84.7617H145.916C145.173 84.7617 144.571 85.364 144.571 86.1069V87.4901C144.571 88.233 145.173 88.8353 145.916 88.8353H156.765C157.508 88.8353 158.11 88.233 158.11 87.4901V86.1069C158.11 85.364 157.508 84.7617 156.765 84.7617Z" fill="#9E9E9E"/>
<path d="M155.154 87.2393L155.222 87.0911C155.321 87.1642 155.441 87.2041 155.564 87.2051C155.724 87.2051 155.792 87.1443 155.792 87.0683C155.792 86.8479 155.177 86.9923 155.177 86.6085C155.177 86.4413 155.31 86.3007 155.595 86.3007C155.716 86.2978 155.836 86.3294 155.94 86.3919L155.88 86.5401C155.793 86.4902 155.695 86.4627 155.595 86.4603C155.435 86.4603 155.37 86.5211 155.37 86.6009C155.37 86.8175 155.982 86.6769 155.982 87.0569C155.982 87.2203 155.849 87.3647 155.564 87.3647C155.417 87.3697 155.273 87.3256 155.154 87.2393Z" fill="white"/>
<path d="M156.37 86.4754H156.028V86.312H156.906V86.4754H156.56V87.3494H156.366L156.37 86.4754Z" fill="white"/>
<path d="M174.241 116.45H14.5806V120.463H174.241V116.45Z" fill="#9E9E9E"/>
<g opacity="0.7">
<path d="M174.241 116.45H14.5806V120.463H174.241V116.45Z" fill="white"/>
</g>
<path d="M23.1915 116.45H22.8115V120.748H23.1915V116.45Z" fill="white"/>
<path d="M58.9039 116.45H58.5239V120.748H58.9039V116.45Z" fill="white"/>
<path d="M94.6163 116.45H94.2363V120.748H94.6163V116.45Z" fill="white"/>
<path d="M130.329 116.45H129.949V120.748H130.329V116.45Z" fill="white"/>
<path d="M166.041 116.45H165.661V120.748H166.041V116.45Z" fill="white"/>
<path d="M174.241 122.036H14.5806V123.898H174.241V122.036Z" fill="#9E9E9E"/>
<path opacity="0.9" d="M174.241 122.036H14.5806V123.898H174.241V122.036Z" fill="white"/>
<path d="M76.608 136.164H76.5016C75.7416 136.799 74.48 137.209 73.3134 137.391C71.972 137.604 70.6534 137.597 69.3196 137.798C68.5178 137.909 67.7351 138.13 66.994 138.455C66.8217 138.591 66.6603 138.739 66.5114 138.9C66.2416 139.193 66.196 139.504 66.7964 139.679C68.5927 140.221 70.5154 140.172 72.2816 139.539C74.0478 138.906 75.5643 137.723 76.608 136.164Z" fill="#263238"/>
<path d="M67.3968 139.402L65.379 140.086C64.8356 140.166 64.79 139.846 65.1662 139.706C65.8806 139.679 67.26 139.189 67.3968 139.402Z" fill="#263238"/>
<g opacity="0.8">
<path d="M76.608 136.164H76.5016C75.7416 136.799 74.48 137.209 73.3134 137.391C71.972 137.604 70.6534 137.597 69.3196 137.798C68.5178 137.909 67.7351 138.13 66.994 138.455C66.8217 138.591 66.6603 138.739 66.5114 138.9C66.2416 139.193 66.196 139.504 66.7964 139.679C68.5927 140.221 70.5154 140.172 72.2816 139.539C74.0478 138.906 75.5643 137.723 76.608 136.164Z" fill="white"/>
<path d="M67.3968 139.402L65.379 140.086C64.8356 140.166 64.79 139.846 65.1662 139.706C65.8806 139.679 67.26 139.189 67.3968 139.402Z" fill="white"/>
</g>
<path d="M75.8633 134.621C75.8633 134.705 75.8177 134.796 75.7835 134.899C75.7493 135.001 75.7493 135.005 75.7303 135.058C75.6923 135.172 75.6467 135.29 75.5973 135.419L75.5099 135.621C75.4757 135.704 75.4415 135.784 75.3997 135.868C75.3579 135.951 75.3199 136.039 75.2743 136.126C75.2287 136.214 75.1869 136.301 75.1375 136.392C75.0881 136.483 75.0463 136.559 74.9969 136.643C74.9475 136.727 74.8829 136.841 74.8183 136.939L74.6397 137.217C74.5751 137.312 74.5105 137.403 74.4421 137.494C74.3737 137.585 74.3053 137.677 74.2331 137.768C74.1609 137.859 74.0849 137.954 74.0051 138.041C73.9253 138.129 73.8531 138.212 73.7733 138.296C73.6935 138.38 73.6061 138.467 73.5187 138.547C73.4376 138.485 73.348 138.435 73.2527 138.399C73.0401 138.289 72.7932 138.268 72.5651 138.339C72.337 138.41 72.1459 138.568 72.0329 138.779C71.9891 138.901 71.9777 139.033 71.9997 139.162C72.0216 139.29 72.0762 139.411 72.1583 139.512C71.9921 139.597 71.8208 139.672 71.6453 139.736L71.4971 139.786L71.3299 139.839C71.2492 139.866 71.1666 139.888 71.0829 139.903C71.0229 139.92 70.962 139.932 70.9005 139.941C70.8104 139.963 70.719 139.98 70.6269 139.991L70.3153 140.021C70.2063 140.021 70.0923 140.021 69.9733 140.021C69.5393 140.019 69.107 139.967 68.6851 139.865C68.4499 139.809 68.2178 139.74 67.9897 139.66C67.5632 139.507 67.149 139.322 66.7509 139.105C66.5799 139.014 66.4089 138.915 66.2303 138.805C66.1046 138.75 65.9922 138.668 65.9005 138.566C65.8088 138.464 65.74 138.343 65.6986 138.212C65.6573 138.082 65.6443 137.943 65.6606 137.807C65.677 137.671 65.7222 137.539 65.7933 137.422C65.9122 137.186 66.0535 136.962 66.2151 136.753C66.9194 136.338 67.713 136.099 68.5293 136.054C69.8973 135.951 71.2729 136.206 72.6371 136.088C73.8227 135.986 75.0805 135.518 75.7531 134.568L75.8633 134.621Z" fill="#9E9E9E"/>
<path d="M66.8076 138.478L64.8202 139.276C64.2654 139.318 64.1628 138.763 64.5314 138.6C65.2724 138.676 66.61 138.087 66.8076 138.478Z" fill="#9E9E9E"/>
<path opacity="0.2" d="M75.8633 134.621C75.8633 134.705 75.8177 134.796 75.7835 134.899C75.7493 135.001 75.7493 135.005 75.7303 135.058C75.6923 135.172 75.6467 135.29 75.5973 135.419L75.5099 135.621C75.4757 135.704 75.4415 135.784 75.3997 135.868C75.3579 135.951 75.3199 136.039 75.2743 136.126C75.2287 136.214 75.1869 136.301 75.1375 136.392C75.0881 136.483 75.0463 136.559 74.9969 136.643C74.9475 136.727 74.8829 136.841 74.8183 136.939L74.6397 137.217C74.5751 137.312 74.5105 137.403 74.4421 137.494C74.3737 137.585 74.3053 137.677 74.2331 137.768C74.1609 137.859 74.0849 137.954 74.0051 138.041C73.9253 138.129 73.8531 138.212 73.7733 138.296C73.6935 138.38 73.6061 138.467 73.5187 138.547C73.4376 138.485 73.348 138.435 73.2527 138.399C73.0401 138.289 72.7932 138.268 72.5651 138.339C72.337 138.41 72.1459 138.568 72.0329 138.779C71.9891 138.901 71.9777 139.033 71.9997 139.162C72.0216 139.29 72.0762 139.411 72.1583 139.512C71.9921 139.597 71.8208 139.672 71.6453 139.736L71.4971 139.786L71.3299 139.839C71.2492 139.866 71.1666 139.888 71.0829 139.903C71.0229 139.92 70.962 139.932 70.9005 139.941C70.8104 139.963 70.719 139.98 70.6269 139.991L70.3153 140.021C70.2063 140.021 70.0923 140.021 69.9733 140.021C69.5393 140.019 69.107 139.967 68.6851 139.865C68.4496 139.81 68.2175 139.741 67.9897 139.66C67.5619 139.51 67.1475 139.325 66.7509 139.105C66.5799 139.014 66.4089 138.915 66.2303 138.805C66.1046 138.75 65.9922 138.668 65.9005 138.566C65.8088 138.464 65.74 138.343 65.6986 138.212C65.6573 138.082 65.6443 137.943 65.6606 137.807C65.677 137.671 65.7222 137.539 65.7933 137.422C65.9122 137.186 66.0535 136.962 66.2151 136.753C66.9194 136.338 67.713 136.099 68.5293 136.054C69.8973 135.951 71.2729 136.206 72.6371 136.088C73.8227 135.986 75.0805 135.518 75.7531 134.568L75.8633 134.621Z" fill="white"/>
<path d="M114 136.248L114.061 136.221C114.751 136.478 115.494 136.558 116.223 136.453C117.082 136.365 117.887 136.145 118.742 136.046C119.254 135.983 119.772 135.991 120.281 136.069C120.413 136.124 120.54 136.189 120.661 136.263C120.874 136.4 120.954 136.586 120.616 136.787C119.601 137.42 118.41 137.709 117.219 137.612C116.027 137.515 114.898 137.037 114 136.248Z" fill="#263238"/>
<path d="M120.183 136.726L121.535 136.814C121.881 136.776 121.858 136.571 121.604 136.548C121.159 136.647 120.243 136.567 120.183 136.726Z" fill="#263238"/>
<g opacity="0.8">
<path d="M114 136.248L114.061 136.221C114.751 136.478 115.494 136.558 116.223 136.453C117.082 136.365 117.887 136.145 118.742 136.046C119.254 135.983 119.772 135.991 120.281 136.069C120.413 136.124 120.54 136.189 120.661 136.263C120.874 136.4 120.954 136.586 120.616 136.787C119.601 137.42 118.41 137.709 117.219 137.612C116.027 137.515 114.898 137.037 114 136.248Z" fill="white"/>
<path d="M120.183 136.726L121.535 136.814C121.881 136.776 121.858 136.571 121.604 136.548C121.159 136.647 120.243 136.567 120.183 136.726Z" fill="white"/>
</g>
<path d="M114.38 134.731L114.444 134.697C114.725 134.953 115.057 135.146 115.418 135.265C115.779 135.383 116.161 135.424 116.538 135.385C117.408 135.339 118.256 135.058 119.126 135.005C119.645 134.962 120.166 135.044 120.646 135.244C120.764 135.362 120.872 135.489 120.969 135.624C121.024 135.693 121.063 135.772 121.085 135.856C121.107 135.941 121.11 136.029 121.096 136.115C121.081 136.202 121.048 136.284 121 136.356C120.951 136.429 120.887 136.49 120.813 136.536C117.211 139.504 114.802 135.761 114.38 134.731Z" fill="#9E9E9E"/>
<path d="M120.426 136.369L121.748 136.7C122.102 136.677 122.128 136.32 121.87 136.248C121.41 136.358 120.517 136.107 120.426 136.369Z" fill="#9E9E9E"/>
<path opacity="0.2" d="M114.38 134.731L114.444 134.697C114.725 134.953 115.057 135.146 115.418 135.265C115.779 135.383 116.161 135.424 116.538 135.385C117.408 135.339 118.256 135.058 119.126 135.005C119.645 134.962 120.166 135.044 120.646 135.244C120.764 135.362 120.872 135.489 120.969 135.624C121.024 135.693 121.063 135.772 121.085 135.856C121.107 135.941 121.11 136.029 121.096 136.115C121.081 136.202 121.048 136.284 121 136.356C120.951 136.429 120.887 136.49 120.813 136.536C117.211 139.504 114.802 135.761 114.38 134.731Z" fill="white"/>
<path d="M91.5458 135.412L91.485 135.385C90.7916 135.618 90.0503 135.672 89.3304 135.541C88.4792 135.423 87.6888 135.161 86.8376 135.051C86.3346 134.973 85.8234 134.963 85.3176 135.02C85.187 135.071 85.06 135.131 84.9376 135.199C84.721 135.328 84.6336 135.507 84.9642 135.723C85.9497 136.384 87.1214 136.71 88.3065 136.654C89.4915 136.598 90.6272 136.162 91.5458 135.412Z" fill="#263238"/>
<path d="M85.3782 135.674L84.0292 135.716C83.6872 135.663 83.7176 135.461 83.9722 135.45C84.4092 135.56 85.325 135.518 85.3782 135.674Z" fill="#263238"/>
<g opacity="0.8">
<path d="M91.5454 135.412L91.4846 135.385C90.7911 135.618 90.0498 135.672 89.33 135.541C88.4788 135.423 87.6884 135.161 86.8372 135.051C86.3341 134.973 85.8229 134.963 85.3172 135.02C85.1865 135.071 85.0596 135.131 84.9372 135.199C84.7206 135.328 84.6332 135.507 84.9638 135.723C85.9492 136.384 87.1209 136.71 88.306 136.654C89.4911 136.598 90.6267 136.162 91.5454 135.412Z" fill="white"/>
<path d="M85.3782 135.674L84.0292 135.716C83.6872 135.663 83.7176 135.461 83.9722 135.45C84.4092 135.56 85.325 135.518 85.3782 135.674Z" fill="white"/>
</g>
<path d="M91.3787 134.344C91.3605 134.326 91.3401 134.311 91.3179 134.298C91.0019 134.504 90.6461 134.642 90.2736 134.701C89.901 134.761 89.5201 134.741 89.1556 134.644C88.3082 134.465 87.5217 134.055 86.6781 133.884C86.1785 133.764 85.6576 133.764 85.1581 133.884C85.0226 133.982 84.8955 134.092 84.7781 134.211C84.7132 134.269 84.6613 134.339 84.6257 134.419C84.5902 134.498 84.5718 134.584 84.5718 134.671C84.5718 134.757 84.5902 134.843 84.6257 134.923C84.6613 135.002 84.7132 135.073 84.7781 135.13C87.8561 138.6 90.8201 135.29 91.3787 134.344Z" fill="#9E9E9E"/>
<path d="M85.1922 135.005L83.8432 135.123C83.5012 135.047 83.5392 134.69 83.7938 134.663C84.227 134.842 85.1428 134.731 85.1922 135.005Z" fill="#9E9E9E"/>
<path opacity="0.2" d="M91.3787 134.344C91.3605 134.326 91.3401 134.311 91.3179 134.298C91.0019 134.504 90.6461 134.642 90.2736 134.701C89.901 134.761 89.5201 134.741 89.1556 134.644C88.3082 134.465 87.5217 134.055 86.6781 133.884C86.1785 133.764 85.6576 133.764 85.1581 133.884C85.0226 133.982 84.8955 134.092 84.7781 134.211C84.7132 134.269 84.6613 134.339 84.6257 134.419C84.5902 134.498 84.5718 134.584 84.5718 134.671C84.5718 134.757 84.5902 134.843 84.6257 134.923C84.6613 135.002 84.7132 135.073 84.7781 135.13C87.8561 138.6 90.8201 135.29 91.3787 134.344Z" fill="white"/>
<path d="M134.558 139.041H134.608C135.118 138.78 135.684 138.65 136.257 138.661C136.929 138.661 137.575 138.74 138.248 138.733C138.649 138.733 139.048 138.678 139.434 138.569C139.527 138.515 139.616 138.453 139.7 138.383C139.852 138.258 139.897 138.11 139.616 137.98C138.771 137.592 137.823 137.485 136.912 137.676C136.001 137.866 135.176 138.345 134.558 139.041Z" fill="#263238"/>
<path d="M139.3 138.079L140.338 137.882C140.611 137.882 140.611 138.037 140.417 138.079C140.064 138.045 139.361 138.193 139.3 138.079Z" fill="#263238"/>
<g opacity="0.8">
<path d="M134.558 139.041H134.608C135.118 138.78 135.684 138.65 136.257 138.661C136.929 138.661 137.575 138.74 138.248 138.733C138.649 138.733 139.048 138.678 139.434 138.569C139.527 138.515 139.616 138.453 139.7 138.383C139.852 138.258 139.897 138.11 139.616 137.98C138.771 137.592 137.823 137.485 136.912 137.676C136.001 137.866 135.176 138.345 134.558 139.041Z" fill="white"/>
<path d="M139.3 138.079L140.338 137.882C140.611 137.882 140.611 138.037 140.417 138.079C140.064 138.045 139.361 138.193 139.3 138.079Z" fill="white"/>
</g>
<path d="M134.539 138.919L134.592 138.946C134.811 138.746 135.069 138.595 135.35 138.503C135.631 138.41 135.928 138.379 136.222 138.41C136.903 138.448 137.56 138.664 138.236 138.71C138.641 138.743 139.047 138.679 139.422 138.524C139.515 138.431 139.6 138.33 139.677 138.224C139.719 138.17 139.75 138.109 139.767 138.043C139.784 137.977 139.787 137.908 139.775 137.841C139.764 137.774 139.738 137.71 139.7 137.653C139.662 137.597 139.613 137.549 139.555 137.513C136.743 135.199 134.862 138.113 134.539 138.919Z" fill="#9E9E9E"/>
<path d="M139.247 137.642L140.277 137.388C140.55 137.388 140.566 137.684 140.372 137.737C140.015 137.65 139.315 137.84 139.247 137.642Z" fill="#9E9E9E"/>
<path opacity="0.2" d="M134.539 138.919L134.592 138.946C134.811 138.746 135.069 138.595 135.35 138.503C135.631 138.41 135.928 138.379 136.222 138.41C136.903 138.448 137.56 138.664 138.236 138.71C138.641 138.743 139.047 138.679 139.422 138.524C139.515 138.431 139.6 138.33 139.677 138.224C139.719 138.17 139.75 138.109 139.767 138.043C139.784 137.977 139.787 137.908 139.775 137.841C139.764 137.774 139.738 137.71 139.7 137.653C139.662 137.597 139.613 137.549 139.555 137.513C136.743 135.199 134.862 138.113 134.539 138.919Z" fill="white"/>
<path d="M56.2589 137.38H56.1867C55.5824 136.912 54.8702 136.604 54.1157 136.483C53.2379 136.305 52.3715 136.278 51.4899 136.103C50.9629 136.009 50.4514 135.843 49.9699 135.609C49.8598 135.514 49.7569 135.412 49.6621 135.301C49.4949 135.1 49.4721 134.895 49.8711 134.796C51.0721 134.485 52.3415 134.568 53.4918 135.033C54.642 135.498 55.6122 136.321 56.2589 137.38Z" fill="#263238"/>
<path d="M50.2625 134.998L48.9515 134.496C48.5943 134.428 48.5715 134.637 48.8033 134.735C49.2707 134.777 50.1599 135.134 50.2625 134.998Z" fill="#263238"/>
<g opacity="0.8">
<path d="M56.2589 137.38H56.1867C55.5824 136.912 54.8702 136.604 54.1157 136.483C53.2379 136.305 52.3715 136.278 51.4899 136.103C50.9629 136.009 50.4514 135.843 49.9699 135.609C49.8598 135.514 49.7569 135.412 49.6621 135.301C49.4949 135.1 49.4721 134.895 49.8711 134.796C51.0721 134.485 52.3415 134.568 53.4918 135.033C54.642 135.498 55.6122 136.321 56.2589 137.38Z" fill="white"/>
<path d="M50.2625 134.998L48.9515 134.496C48.5943 134.428 48.5715 134.637 48.8033 134.735C49.2707 134.777 50.1599 135.134 50.2625 134.998Z" fill="white"/>
</g>
<path d="M56.312 137.228L56.236 137.247C55.9952 136.935 55.6914 136.678 55.3444 136.491C54.9973 136.304 54.6149 136.193 54.222 136.164C53.3252 136.05 52.4094 136.164 51.5088 136.077C50.9674 136.026 50.4462 135.846 49.9888 135.552C49.8879 135.41 49.8013 135.259 49.7304 135.1C49.6868 135.021 49.6605 134.933 49.6534 134.843C49.6462 134.753 49.6583 134.662 49.6888 134.577C49.7194 134.492 49.7677 134.414 49.8305 134.349C49.8934 134.284 49.9693 134.233 50.0534 134.2C54.3018 131.828 56.0802 136.096 56.312 137.228Z" fill="#9E9E9E"/>
<path d="M50.4412 134.439L49.1492 133.861C48.7692 133.819 48.7008 134.18 48.9402 134.298C49.4304 134.272 50.2968 134.693 50.4412 134.439Z" fill="#9E9E9E"/>
<path opacity="0.2" d="M56.312 137.228L56.236 137.247C55.9952 136.935 55.6914 136.678 55.3444 136.491C54.9973 136.304 54.6149 136.193 54.222 136.164C53.3252 136.05 52.4094 136.164 51.5088 136.077C50.9674 136.026 50.4462 135.846 49.9888 135.552C49.8879 135.41 49.8013 135.259 49.7304 135.1C49.6868 135.021 49.6605 134.933 49.6534 134.843C49.6462 134.753 49.6583 134.662 49.6888 134.577C49.7194 134.492 49.7677 134.414 49.8305 134.349C49.8934 134.284 49.9693 134.233 50.0534 134.2C54.3018 131.828 56.0802 136.096 56.312 137.228Z" fill="white"/>
</g>
<defs>
<clipPath id="clip0_1627_22217">
<rect width="190" height="190" fill="white" transform="translate(0 -21)"/>
</clipPath>
</defs>
</svg>
