<svg width="20" height="20" viewBox="0 0 20 20" fill="none" xmlns="http://www.w3.org/2000/svg">
<path d="M16.1935 10.8167C16.2268 10.5501 16.2518 10.2834 16.2518 10.0001C16.2518 9.71675 16.2268 9.45008 16.1935 9.18341L17.9518 7.80841C18.1102 7.68341 18.1518 7.45841 18.0518 7.27508L16.3852 4.39175C16.3102 4.25841 16.1685 4.18341 16.0185 4.18341C15.9685 4.18341 15.9185 4.19175 15.8768 4.20841L13.8018 5.04175C13.3685 4.70841 12.9018 4.43341 12.3935 4.22508L12.0768 2.01675C12.0518 1.81675 11.8768 1.66675 11.6685 1.66675H8.33515C8.12682 1.66675 7.95182 1.81675 7.92682 2.01675L7.61015 4.22508C7.10182 4.43341 6.63515 4.71675 6.20182 5.04175L4.12682 4.20841C4.07682 4.19175 4.02682 4.18341 3.97682 4.18341C3.83515 4.18341 3.69349 4.25841 3.61849 4.39175L1.95182 7.27508C1.84349 7.45841 1.89349 7.68341 2.05182 7.80841L3.81015 9.18341C3.77682 9.45008 3.75182 9.72508 3.75182 10.0001C3.75182 10.2751 3.77682 10.5501 3.81015 10.8167L2.05182 12.1917C1.89349 12.3167 1.85182 12.5417 1.95182 12.7251L3.61849 15.6084C3.69349 15.7417 3.83515 15.8167 3.98515 15.8167C4.03515 15.8167 4.08515 15.8084 4.12682 15.7917L6.20182 14.9584C6.63515 15.2917 7.10182 15.5667 7.61015 15.7751L7.92682 17.9834C7.95182 18.1834 8.12682 18.3334 8.33515 18.3334H11.6685C11.8768 18.3334 12.0518 18.1834 12.0768 17.9834L12.3935 15.7751C12.9018 15.5667 13.3685 15.2834 13.8018 14.9584L15.8768 15.7917C15.9268 15.8084 15.9768 15.8167 16.0268 15.8167C16.1685 15.8167 16.3102 15.7417 16.3852 15.6084L18.0518 12.7251C18.1518 12.5417 18.1102 12.3167 17.9518 12.1917L16.1935 10.8167ZM14.5435 9.39175C14.5768 9.65008 14.5852 9.82508 14.5852 10.0001C14.5852 10.1751 14.5685 10.3584 14.5435 10.6084L14.4268 11.5501L15.1685 12.1334L16.0685 12.8334L15.4852 13.8417L14.4268 13.4167L13.5602 13.0667L12.8102 13.6334C12.4518 13.9001 12.1102 14.1001 11.7685 14.2417L10.8852 14.6001L10.7518 15.5417L10.5852 16.6667H9.41849L9.12682 14.6001L8.24349 14.2417C7.88515 14.0917 7.55182 13.9001 7.21849 13.6501L6.46015 13.0667L5.57682 13.4251L4.51849 13.8501L3.93515 12.8417L4.83515 12.1417L5.57682 11.5584L5.46015 10.6167C5.43515 10.3584 5.41849 10.1667 5.41849 10.0001C5.41849 9.83341 5.43515 9.64175 5.46015 9.39175L5.57682 8.45008L4.83515 7.86675L3.93515 7.16675L4.51849 6.15841L5.57682 6.58341L6.44349 6.93341L7.19349 6.36675C7.55182 6.10008 7.89349 5.90008 8.23515 5.75841L9.11849 5.40008L9.25182 4.45841L9.41849 3.33341H10.5768L10.8685 5.40008L11.7518 5.75841C12.1102 5.90841 12.4435 6.10008 12.7768 6.35008L13.5352 6.93341L14.4185 6.57508L15.4768 6.15008L16.0602 7.15841L15.1685 7.86675L14.4268 8.45008L14.5435 9.39175ZM10.0018 6.66675C8.16015 6.66675 6.66849 8.15841 6.66849 10.0001C6.66849 11.8417 8.16015 13.3334 10.0018 13.3334C11.8435 13.3334 13.3352 11.8417 13.3352 10.0001C13.3352 8.15841 11.8435 6.66675 10.0018 6.66675ZM10.0018 11.6667C9.08515 11.6667 8.33515 10.9167 8.33515 10.0001C8.33515 9.08341 9.08515 8.33341 10.0018 8.33341C10.9185 8.33341 11.6685 9.08341 11.6685 10.0001C11.6685 10.9167 10.9185 11.6667 10.0018 11.6667Z" fill="#424242"/>
</svg>
